<svg width="23" height="22" viewBox="0 0 23 22" fill="none" xmlns="http://www.w3.org/2000/svg">
<path d="M12.6378 6.42524C15.5423 6.42524 17.19 8.34749 17.4297 10.6694H17.503C19.3721 10.6694 20.8874 12.181 20.8874 14.045C20.8874 15.9095 19.3721 17.4207 17.503 17.4207H7.77262C5.90353 17.4207 4.38828 15.9095 4.38828 14.045C4.38828 12.2181 5.84395 10.7299 7.66078 10.6712L7.84641 10.6694C8.08749 8.33237 9.73337 6.42524 12.6378 6.42524ZM12.6378 7.56878C10.6853 7.56878 8.98262 9.14912 8.98262 11.3317C8.98262 11.6777 8.68195 11.9491 8.33774 11.9491H7.68645C6.49708 11.9491 5.5332 12.918 5.5332 14.1133C5.5332 15.3082 6.49708 16.2771 7.68599 16.2771H17.5887C18.7781 16.2771 19.7415 15.3082 19.7415 14.1133C19.7415 12.918 18.7781 11.9491 17.5887 11.9491H16.9379C16.5932 11.9491 16.2926 11.6777 16.2926 11.3322C16.2926 9.12116 14.5903 7.56878 12.6374 7.56878H12.6378ZM9.88645 3.66699C10.5895 3.66666 11.282 3.83779 11.9039 4.16557C12.5258 4.49334 13.0584 4.96786 13.4555 5.54799C12.9324 5.48615 12.4039 5.48353 11.8802 5.5402C11.3267 5.06039 10.6189 4.79599 9.88645 4.79541C8.38128 4.79541 7.09841 5.90595 6.84174 7.40608L6.69783 8.24483C6.67964 8.35151 6.6243 8.44832 6.54158 8.51812C6.45887 8.58791 6.35413 8.62618 6.24591 8.62616H5.35353C4.40799 8.62616 3.64166 9.40991 3.64166 10.3775C3.64166 10.8844 3.85249 11.3409 4.18845 11.6608C3.98913 11.9589 3.82836 12.2811 3.70995 12.6196C3.21631 12.234 2.85533 11.704 2.67736 11.1034C2.4994 10.5029 2.51331 9.86175 2.71718 9.26948C2.92105 8.67722 3.30469 8.16335 3.8146 7.79956C4.3245 7.43577 4.93524 7.24021 5.56162 7.24016H5.6267C5.80376 6.239 6.32773 5.33218 7.10666 4.67879C7.8856 4.0254 8.86976 3.66718 9.88645 3.66699Z" fill="#1F1F1F"/>
</svg>
