<svg width="414" height="73" viewBox="0 0 414 73" fill="none" xmlns="http://www.w3.org/2000/svg">
<g clip-path="url(#clip0_2001_3059)">
<path d="M414 0H296.604V73H414V0Z" fill="#0039A6"/>
<path d="M301.996 8.65625H329.843C341.512 8.65625 351.31 16.3522 351.31 27.9367C351.31 38.8991 340.964 47.2172 329.843 47.2172H312.887V63.0757H301.996V8.65625ZM329.843 18.6853H312.887V37.0326H329.843C335.832 37.0326 340.423 33.0662 340.423 27.9367C340.423 22.8072 335.913 18.6853 329.843 18.6853Z" fill="white"/>
<path d="M403.269 8.65625V18.1409H369.822V28.4033H388.413C398.914 28.4033 408.401 35.7104 408.401 45.6618C408.401 56.1575 399.378 63.0757 388.413 63.0757H358.935V8.65625H403.269ZM388.413 38.0402H369.822V53.5099H388.413C393.779 53.5099 397.514 50.1657 397.514 45.6584C397.514 41.4587 393.704 38.0402 388.413 38.0402Z" fill="white"/>
<path d="M37.8003 8.65625V18.1409H10.8905V63.0723H0V8.65625H37.8003Z" fill="#0039A6"/>
<path d="M77.3936 63.0719L76.3042 57.9423C72.3358 61.9087 66.6588 64.2384 60.048 64.2384C47.1378 64.2384 37.4146 55.4537 37.4146 43.717C37.4146 31.9803 47.06 23.04 60.048 23.04C66.581 23.04 72.3391 25.2954 76.3042 29.3361L77.3936 24.2066H87.0391V63.0752H77.3936V63.0719ZM62.3824 54.5982C70.6273 54.5982 76.1486 50.1686 76.1486 43.7136C76.1486 37.2586 70.5494 32.5957 62.3824 32.5957C54.2154 32.5957 48.305 37.2586 48.305 43.7136C48.305 50.1686 54.2154 54.5982 62.3824 54.5982Z" fill="#0039A6"/>
<path d="M96.2144 49.5473H106.327C106.327 53.747 110.836 56.3878 116.595 56.3878C122.038 56.3878 125.54 54.4435 125.54 51.4138C125.54 48.2252 122.116 46.2843 115.739 46.2843H112.004V40.066H115.583C121.805 40.066 124.45 38.3551 124.45 35.2476C124.45 32.3701 121.182 30.5847 116.128 30.5847C111.073 30.5847 107.416 33.2289 107.416 36.803H97.3037C97.3037 29.1071 105.393 23.1221 115.739 23.1221C127.407 23.1221 135.185 27.5516 135.185 34.1622C135.185 38.2063 132.929 41.1582 128.419 42.9469C133.629 44.8134 136.275 48.0764 136.275 52.5094C136.275 59.5832 128.185 64.2494 116.131 64.2494C105.007 64.2494 96.2177 58.0311 96.2177 49.5575L96.2144 49.5473Z" fill="#0039A6"/>
<path d="M152.683 46.3578C153.85 51.954 158.827 55.687 165.36 55.687C170.025 55.687 173.76 53.976 175.783 51.1796H186.83C183.873 59.1089 175.55 64.2384 164.896 64.2384C151.519 64.2384 141.485 55.4537 141.485 43.717C141.485 31.9803 151.441 23.04 164.896 23.04C178.351 23.04 188.152 31.3582 188.152 43.717C188.152 44.5725 188.152 45.5057 187.997 46.3612H152.683V46.3578ZM176.951 40.9172C175.861 35.3989 171.274 31.8214 164.893 31.8214C158.512 31.8214 153.847 35.4767 152.68 40.9172H176.947H176.951Z" fill="#0039A6"/>
<path d="M209.385 34.2332H191.728V24.2041H237.696V34.2332H220.272V63.0727H209.382V34.2332H209.385Z" fill="#0039A6"/>
<path d="M280.787 63.0719L279.698 57.9423C275.729 61.9087 270.052 64.2384 263.442 64.2384C250.531 64.2384 240.808 55.4537 240.808 43.717C240.808 31.9803 250.454 23.04 263.442 23.04C269.975 23.04 275.729 25.2954 279.698 29.3361L280.787 24.2066H290.433V63.0752H280.787V63.0719ZM265.776 54.5982C274.021 54.5982 279.542 50.1686 279.542 43.7136C279.542 37.2586 273.943 32.5957 265.776 32.5957C257.609 32.5957 251.699 37.2586 251.699 43.7136C251.699 50.1686 257.609 54.5982 265.776 54.5982Z" fill="#0039A6"/>
</g>
<defs>
<clipPath id="clip0_2001_3059">
<rect width="414" height="73" fill="white"/>
</clipPath>
</defs>
</svg>
