<svg width="408" height="72" viewBox="0 0 408 72" fill="none" xmlns="http://www.w3.org/2000/svg">
<g clip-path="url(#clip0_2001_3032)">
<path d="M408 0H292.305V72H408V0Z" fill="black"/>
<path d="M297.62 8.53809H325.063C336.563 8.53809 346.218 16.1286 346.218 27.5544C346.218 38.3666 336.022 46.5708 325.063 46.5708H308.352V62.2121H297.62V8.53809ZM325.063 18.4298H308.352V36.5257H325.063C330.964 36.5257 335.489 32.6137 335.489 27.5544C335.489 22.4952 331.044 18.4298 325.063 18.4298Z" fill="white"/>
<path d="M397.424 8.53809V17.8928H364.463V28.0147H382.784C393.133 28.0147 402.482 35.2217 402.482 45.0367C402.482 55.3886 393.59 62.2121 382.784 62.2121H353.733V8.53809H397.424ZM382.784 37.5195H364.463V52.7773H382.784C388.072 52.7773 391.753 49.4789 391.753 45.0333C391.753 40.8912 387.998 37.5195 382.784 37.5195Z" fill="white"/>
<path d="M37.2525 8.53809V17.8928H10.7326V62.2087H0V8.53809H37.2525Z" fill="black"/>
<path d="M76.272 62.209L75.1984 57.1498C71.2875 61.0618 65.6928 63.3596 59.1778 63.3596C46.4547 63.3596 36.8724 54.6952 36.8724 43.1193C36.8724 31.5434 46.378 22.7256 59.1778 22.7256C65.6161 22.7256 71.2908 24.9501 75.1984 28.9354L76.272 23.8762H85.7777V62.2124H76.272V62.209ZM61.4784 53.8514C69.6037 53.8514 75.0451 49.4825 75.0451 43.116C75.0451 36.7494 69.527 32.1504 61.4784 32.1504C53.4298 32.1504 47.605 36.7494 47.605 43.116C47.605 49.4825 53.4298 53.8514 61.4784 53.8514Z" fill="black"/>
<path d="M94.8199 48.8689H104.786C104.786 53.011 109.23 55.6157 114.905 55.6157C120.269 55.6157 123.72 53.6981 123.72 50.7099C123.72 47.5649 120.346 45.6506 114.061 45.6506H110.38V39.5175H113.908C120.039 39.5175 122.647 37.83 122.647 34.7651C122.647 31.927 119.426 30.1661 114.445 30.1661C109.464 30.1661 105.859 32.7741 105.859 36.2992H95.8935C95.8935 28.7087 103.865 22.8057 114.061 22.8057C125.561 22.8057 133.226 27.1746 133.226 33.6945C133.226 37.6832 131.002 40.5947 126.558 42.359C131.692 44.1999 134.3 47.4182 134.3 51.7904C134.3 58.7673 126.328 63.3697 114.448 63.3697C103.485 63.3697 94.8232 57.2365 94.8232 48.8789L94.8199 48.8689Z" fill="black"/>
<path d="M150.47 45.724C151.621 51.2434 156.525 54.9253 162.963 54.9253C167.561 54.9253 171.242 53.2378 173.236 50.4797H184.122C181.208 58.3004 173.006 63.3596 162.507 63.3596C149.323 63.3596 139.434 54.6952 139.434 43.1193C139.434 31.5434 149.247 22.7256 162.507 22.7256C175.766 22.7256 185.425 30.9298 185.425 43.1193C185.425 43.9631 185.425 44.8835 185.272 45.7273H150.47V45.724ZM174.386 40.3579C173.312 34.9151 168.791 31.3867 162.503 31.3867C156.215 31.3867 151.617 34.9918 150.467 40.3579H174.383H174.386Z" fill="black"/>
<path d="M206.351 33.7648H188.95V23.873H234.251V33.7648H217.08V62.2092H206.347V33.7648H206.351Z" fill="black"/>
<path d="M276.718 62.209L275.644 57.1498C271.733 61.0618 266.139 63.3596 259.624 63.3596C246.901 63.3596 237.318 54.6952 237.318 43.1193C237.318 31.5434 246.824 22.7256 259.624 22.7256C266.062 22.7256 271.733 24.9501 275.644 28.9354L276.718 23.8762H286.224V62.2124H276.718V62.209ZM261.924 53.8514C270.05 53.8514 275.491 49.4825 275.491 43.116C275.491 36.7494 269.973 32.1504 261.924 32.1504C253.876 32.1504 248.051 36.7494 248.051 43.116C248.051 49.4825 253.876 53.8514 261.924 53.8514Z" fill="black"/>
</g>
<defs>
<clipPath id="clip0_2001_3032">
<rect width="408" height="72" fill="white"/>
</clipPath>
</defs>
</svg>
