<svg width="137" height="25" viewBox="0 0 137 25" fill="none" xmlns="http://www.w3.org/2000/svg">
<g clip-path="url(#clip0_2124_3930)">
<path d="M137 0H98.1514V25H137V0Z" fill="white"/>
<path d="M99.936 2.96484H109.151C113.012 2.96484 116.255 5.60045 116.255 9.56774C116.255 13.322 112.831 16.1706 109.151 16.1706H103.54V21.6016H99.936V2.96484ZM109.151 6.39946H103.54V12.6828H109.151C111.133 12.6828 112.652 11.3244 112.652 9.56774C112.652 7.81106 111.16 6.39946 109.151 6.39946Z" fill="#0039A6"/>
<path d="M133.449 2.96484V6.21303H122.381V9.72755H128.533C132.008 9.72755 135.147 12.23 135.147 15.638C135.147 19.2324 132.161 21.6016 128.533 21.6016H118.778V2.96484H133.449ZM128.533 13.0278H122.381V18.3257H128.533C130.308 18.3257 131.544 17.1804 131.544 15.6368C131.544 14.1986 130.284 13.0278 128.533 13.0278Z" fill="#0039A6"/>
<path d="M12.5088 2.96484V6.21303H3.60385V21.6005H0V2.96484H12.5088Z" fill="white"/>
<path d="M25.6109 21.6002L25.2504 19.8435C23.9372 21.2018 22.0585 21.9997 19.8709 21.9997C15.5987 21.9997 12.3811 18.9912 12.3811 14.9718C12.3811 10.9524 15.573 7.89062 19.8709 7.89062C22.0328 7.89062 23.9383 8.66301 25.2504 10.0468L25.6109 8.29013H28.8027V21.6013H25.6109V21.6002ZM20.6434 18.6982C23.3718 18.6982 25.1989 17.1812 25.1989 14.9706C25.1989 12.76 23.346 11.1631 20.6434 11.1631C17.9408 11.1631 15.985 12.76 15.985 14.9706C15.985 17.1812 17.9408 18.6982 20.6434 18.6982Z" fill="white"/>
<path d="M31.8391 16.9687H35.1855C35.1855 18.4069 36.6778 19.3113 38.5833 19.3113C40.3847 19.3113 41.5434 18.6455 41.5434 17.6079C41.5434 16.5159 40.4104 15.8512 38.3001 15.8512H37.0641V13.7217H38.2486C40.3074 13.7217 41.1829 13.1357 41.1829 12.0715C41.1829 11.0861 40.1014 10.4746 38.4288 10.4746C36.7562 10.4746 35.546 11.3802 35.546 12.6042H32.1996C32.1996 9.9686 34.8765 7.91895 38.3001 7.91895C42.1614 7.91895 44.7353 9.43592 44.7353 11.6998C44.7353 13.0848 43.9885 14.0957 42.4962 14.7083C44.2203 15.3475 45.0958 16.465 45.0958 17.9831C45.0958 20.4056 42.4189 22.0037 38.4299 22.0037C34.7488 22.0037 31.8402 19.8741 31.8402 16.9722L31.8391 16.9687Z" fill="white"/>
<path d="M50.5256 15.8762C50.9118 17.7927 52.5587 19.0711 54.7205 19.0711C56.2644 19.0711 57.5004 18.4851 58.1699 17.5275H61.8252C60.8467 20.243 58.0926 21.9997 54.5671 21.9997C50.1404 21.9997 46.8198 18.9912 46.8198 14.9718C46.8198 10.9524 50.1147 7.89062 54.5671 7.89062C59.0196 7.89062 62.263 10.7393 62.263 14.9718C62.263 15.2648 62.263 15.5844 62.2115 15.8773H50.5256V15.8762ZM58.5561 14.013C58.1956 12.1231 56.6775 10.8979 54.566 10.8979C52.4545 10.8979 50.9107 12.1497 50.5244 14.013H58.555H58.5561Z" fill="white"/>
<path d="M69.2892 11.7237H63.4463V8.28906H78.6577V11.7237H72.892V21.6002H69.2881V11.7237H69.2892Z" fill="white"/>
<path d="M92.9175 21.6002L92.557 19.8435C91.2438 21.2018 89.3652 21.9997 87.1776 21.9997C82.9053 21.9997 79.6877 18.9912 79.6877 14.9718C79.6877 10.9524 82.8796 7.89062 87.1776 7.89062C89.3394 7.89062 91.2438 8.66301 92.557 10.0468L92.9175 8.29013H96.1094V21.6013H92.9175V21.6002ZM87.9501 18.6982C90.6784 18.6982 92.5055 17.1812 92.5055 14.9706C92.5055 12.76 90.6527 11.1631 87.9501 11.1631C85.2475 11.1631 83.2916 12.76 83.2916 14.9706C83.2916 17.1812 85.2475 18.6982 87.9501 18.6982Z" fill="white"/>
</g>
<defs>
<clipPath id="clip0_2124_3930">
<rect width="137" height="25" fill="white"/>
</clipPath>
</defs>
</svg>
