<svg width="21" height="21" viewBox="0 0 21 21" fill="none" xmlns="http://www.w3.org/2000/svg">
<g clip-path="url(#clip0_5_7144)">
<path fill-rule="evenodd" clip-rule="evenodd" d="M19.9562 4.99459C20.0946 4.53959 19.9562 4.20459 19.2937 4.20459H17.1062C16.5496 4.20459 16.2929 4.49376 16.1537 4.81292C16.1537 4.81292 15.0412 7.47626 13.4654 9.20626C12.9554 9.70792 12.7237 9.86709 12.4454 9.86709C12.3062 9.86709 12.0971 9.70792 12.0971 9.25209V4.99459C12.0971 4.44792 11.9437 4.20459 11.4804 4.20459H8.04038C7.69288 4.20459 7.48372 4.45792 7.48372 4.69876C7.48372 5.21626 8.27205 5.33626 8.35288 6.79292V9.95792C8.35288 10.6521 8.22538 10.7779 7.94705 10.7779C7.20538 10.7779 5.40122 8.10209 4.33038 5.04042C4.12288 4.44459 3.91288 4.20459 3.35372 4.20459H1.16455C0.539551 4.20459 0.414551 4.49376 0.414551 4.81292C0.414551 5.38126 1.15622 8.20459 3.86872 11.9388C5.67705 14.4888 8.22288 15.8713 10.5421 15.8713C11.9329 15.8713 12.1046 15.5646 12.1046 15.0354V13.1079C12.1046 12.4938 12.2362 12.3713 12.6771 12.3713C13.0021 12.3713 13.5579 12.5313 14.8562 13.7604C16.3396 15.2179 16.5837 15.8713 17.4187 15.8713H19.6062C20.2312 15.8713 20.5445 15.5646 20.3646 14.9579C20.1662 14.3546 19.4579 13.4788 18.5187 12.4396C18.0087 11.8479 17.2437 11.2104 17.0112 10.8913C16.687 10.4821 16.7796 10.2996 17.0112 9.93542C17.0112 9.93542 19.6779 6.24709 19.9554 4.99459H19.9562Z" fill="#7C7C7C"/>
</g>
<defs>
<clipPath id="clip0_5_7144">
<rect width="20" height="20" fill="white" transform="translate(0.414551 0.0380859)"/>
</clipPath>
</defs>
</svg>
