<svg width="21" height="21" viewBox="0 0 21 21" fill="none" xmlns="http://www.w3.org/2000/svg">
<g clip-path="url(#clip0_5_7146)">
<path fill-rule="evenodd" clip-rule="evenodd" d="M20.4146 10.0381C20.4146 15.5606 15.937 20.0381 10.4146 20.0381C4.89205 20.0381 0.414551 15.5606 0.414551 10.0381C0.414551 4.51559 4.89205 0.0380859 10.4146 0.0380859C15.937 0.0380859 20.4146 4.51559 20.4146 10.0381ZM10.7729 7.42059C9.80038 7.82475 7.85622 8.66225 4.94122 9.93225C4.46788 10.1206 4.21955 10.3048 4.19705 10.4848C4.15872 10.7898 4.54038 10.9098 5.05872 11.0723C5.12955 11.0948 5.20288 11.1173 5.27788 11.1423C5.78872 11.3081 6.47538 11.5023 6.83205 11.5098C7.15622 11.5164 7.51788 11.3831 7.91705 11.1098C10.6404 9.27059 12.0462 8.34142 12.1346 8.32142C12.1971 8.30725 12.2837 8.28892 12.3421 8.34142C12.4004 8.39309 12.3946 8.49142 12.3887 8.51809C12.3504 8.67892 10.8554 10.0698 10.0804 10.7898C9.83872 11.0139 9.66788 11.1731 9.63288 11.2098C9.55455 11.2906 9.47455 11.3681 9.39788 11.4423C8.92288 11.8989 8.56788 12.2423 9.41788 12.8023C9.82622 13.0714 10.1529 13.2939 10.4787 13.5156C10.8345 13.7581 11.1896 13.9998 11.6496 14.3014C11.7662 14.3781 11.8779 14.4573 11.9871 14.5348C12.4012 14.8306 12.7737 15.0956 13.2337 15.0539C13.5004 15.0289 13.7771 14.7781 13.917 14.0289C14.2479 12.2573 14.8996 8.42059 15.0504 6.83892C15.0596 6.7076 15.054 6.57566 15.0337 6.44559C15.0216 6.34053 14.9704 6.24386 14.8904 6.17475C14.7712 6.07725 14.5862 6.05642 14.5029 6.05809C14.1271 6.06475 13.5504 6.26559 10.7729 7.42059Z" fill="#7C7C7C"/>
</g>
<defs>
<clipPath id="clip0_5_7146">
<rect width="20" height="20" fill="white" transform="translate(0.414551 0.0380859)"/>
</clipPath>
</defs>
</svg>
