<svg width="12" height="21" viewBox="0 0 12 21" fill="none" xmlns="http://www.w3.org/2000/svg">
<g clip-path="url(#clip0_5_7148)">
<path d="M6.20783 0.0380859C3.36111 0.0380859 1.04532 2.35351 1.04532 5.19997C1.04532 8.04621 3.36111 10.3606 6.20783 10.3606C9.05446 10.3606 11.3691 8.04621 11.3691 5.19997C11.3691 2.35351 9.05448 0.0380859 6.20783 0.0380859ZM6.20783 3.06247C7.38601 3.06247 8.3441 4.02181 8.3441 5.19997C8.3441 6.37763 7.38603 7.33623 6.20783 7.33623C5.02941 7.33623 4.07033 6.37765 4.07033 5.19997C4.07033 4.02181 5.02941 3.06247 6.20783 3.06247ZM1.95159 10.5362C1.44082 10.5283 0.938564 10.78 0.647203 11.2443C0.201943 11.9517 0.415243 12.885 1.12096 13.3299C2.05445 13.9156 3.06739 14.3311 4.11785 14.5706L1.23284 17.4568C0.642243 18.0477 0.642743 19.0047 1.23346 19.5956C1.52954 19.8905 1.91571 20.0381 2.30285 20.0381C2.68959 20.0381 3.07705 19.8903 3.37223 19.595L6.20661 16.7593L9.0435 19.595C9.6336 20.1857 10.5905 20.1857 11.1816 19.595C11.7725 19.0045 11.7725 18.0465 11.1816 17.4568L8.29536 14.5712C9.34612 14.3317 10.3594 13.916 11.2922 13.33C11.9994 12.8851 12.213 11.9507 11.7679 11.2443C11.3222 10.5368 10.3892 10.3237 9.6816 10.7693C7.56815 12.0987 4.84499 12.0978 2.73221 10.7693C2.48901 10.6162 2.21913 10.5404 1.95159 10.5362V10.5362Z" fill="#7C7C7C"/>
</g>
<defs>
<clipPath id="clip0_5_7148">
<rect width="11.5855" height="20" fill="white" transform="translate(0.414551 0.0380859)"/>
</clipPath>
</defs>
</svg>
