<svg width="40" height="41" viewBox="0 0 40 41" fill="none" xmlns="http://www.w3.org/2000/svg">
<g clip-path="url(#clip0_5_7127)">
<path fill-rule="evenodd" clip-rule="evenodd" d="M20 37.5381C24.6413 37.5381 29.0925 35.6943 32.3744 32.4125C35.6563 29.1306 37.5 24.6794 37.5 20.0381C37.5 15.3968 35.6563 10.9456 32.3744 7.66372C29.0925 4.38183 24.6413 2.53809 20 2.53809C15.3587 2.53809 10.9075 4.38183 7.62563 7.66372C4.34374 10.9456 2.5 15.3968 2.5 20.0381C2.5 24.6794 4.34374 29.1306 7.62563 32.4125C10.9075 35.6943 15.3587 37.5381 20 37.5381ZM20 0.0380859C25.3043 0.0380859 30.3914 2.14522 34.1421 5.89595C37.8929 9.64668 40 14.7338 40 20.0381C40 25.3424 37.8929 30.4295 34.1421 34.1802C30.3914 37.9309 25.3043 40.0381 20 40.0381C14.6957 40.0381 9.60859 37.9309 5.85786 34.1802C2.10714 30.4295 0 25.3424 0 20.0381C0 14.7338 2.10714 9.64668 5.85786 5.89595C9.60859 2.14522 14.6957 0.0380859 20 0.0380859ZM11.25 18.7881C10.9185 18.7881 10.6005 18.9198 10.3661 19.1542C10.1317 19.3886 10 19.7066 10 20.0381C10 20.3696 10.1317 20.6875 10.3661 20.922C10.6005 21.1564 10.9185 21.2881 11.25 21.2881H25.7325L20.365 26.6531C20.1303 26.8878 19.9984 27.2061 19.9984 27.5381C19.9984 27.87 20.1303 28.1884 20.365 28.4231C20.5997 28.6578 20.9181 28.7897 21.25 28.7897C21.5819 28.7897 21.9003 28.6578 22.135 28.4231L29.635 20.9231C29.7514 20.807 29.8438 20.669 29.9068 20.5172C29.9698 20.3653 30.0022 20.2025 30.0022 20.0381C30.0022 19.8737 29.9698 19.7109 29.9068 19.559C29.8438 19.4071 29.7514 19.2692 29.635 19.1531L22.135 11.6531C21.9003 11.4184 21.5819 11.2865 21.25 11.2865C20.9181 11.2865 20.5997 11.4184 20.365 11.6531C20.1303 11.8878 19.9984 12.2061 19.9984 12.5381C19.9984 12.87 20.1303 13.1884 20.365 13.4231L25.7325 18.7881H11.25Z" fill="#FAFAFA"/>
</g>
<defs>
<clipPath id="clip0_5_7127">
<rect width="40" height="40" fill="white" transform="matrix(0 -1 1 0 0 40.0381)"/>
</clipPath>
</defs>
</svg>
