<svg width="40" height="41" viewBox="0 0 40 41" fill="none" xmlns="http://www.w3.org/2000/svg">
<g clip-path="url(#clip0_5_7127)">
<path fill-rule="evenodd" clip-rule="evenodd" d="M20 37.5381C15.3587 37.5381 10.9075 35.6943 7.62563 32.4125C4.34375 29.1306 2.5 24.6794 2.5 20.0381C2.5 15.3968 4.34375 10.9456 7.62563 7.66372C10.9075 4.38183 15.3587 2.53809 20 2.53809C24.6413 2.53809 29.0925 4.38183 32.3744 7.66372C35.6563 10.9456 37.5 15.3968 37.5 20.0381C37.5 24.6794 35.6563 29.1306 32.3744 32.4125C29.0925 35.6943 24.6413 37.5381 20 37.5381ZM20 0.0380859C14.6957 0.0380859 9.60859 2.14522 5.85786 5.89595C2.10714 9.64668 0 14.7338 0 20.0381C0 25.3424 2.10714 30.4295 5.85786 34.1802C9.60859 37.9309 14.6957 40.0381 20 40.0381C25.3043 40.0381 30.3914 37.9309 34.1421 34.1802C37.8929 30.4295 40 25.3424 40 20.0381C40 14.7338 37.8929 9.64668 34.1421 5.89595C30.3914 2.14522 25.3043 0.0380859 20 0.0380859ZM28.75 18.7881C29.0815 18.7881 29.3995 18.9198 29.6339 19.1542C29.8683 19.3886 30 19.7066 30 20.0381C30 20.3696 29.8683 20.6875 29.6339 20.922C29.3995 21.1564 29.0815 21.2881 28.75 21.2881H14.2675L19.635 26.6531C19.8697 26.8878 20.0016 27.2061 20.0016 27.5381C20.0016 27.87 19.8697 28.1884 19.635 28.4231C19.4003 28.6578 19.0819 28.7897 18.75 28.7897C18.4181 28.7897 18.0997 28.6578 17.865 28.4231L10.365 20.9231C10.2486 20.807 10.1562 20.669 10.0932 20.5172C10.0302 20.3653 9.99777 20.2025 9.99777 20.0381C9.99777 19.8737 10.0302 19.7109 10.0932 19.559C10.1562 19.4071 10.2486 19.2692 10.365 19.1531L17.865 11.6531C18.0997 11.4184 18.4181 11.2865 18.75 11.2865C19.0819 11.2865 19.4003 11.4184 19.635 11.6531C19.8697 11.8878 20.0016 12.2061 20.0016 12.5381C20.0016 12.87 19.8697 13.1884 19.635 13.4231L14.2675 18.7881H28.75Z" fill="#FAFAFA"/>
</g>
<defs>
<clipPath id="clip0_5_7127">
<rect width="40" height="40" fill="white" transform="matrix(0 -1 -1 0 40 40.0381)"/>
</clipPath>
</defs>
</svg>
