<svg width="162" height="28" viewBox="0 0 162 28" fill="none" xmlns="http://www.w3.org/2000/svg">
<path d="M162 0H116.062V28H162V0Z" fill="white"/>
<path d="M118.173 3.32031H129.069C133.635 3.32031 137.469 6.27219 137.469 10.7156C137.469 14.9203 133.421 18.1108 129.069 18.1108H122.434V24.1935H118.173V3.32031ZM129.069 7.16709H122.434V14.2044H129.069C131.412 14.2044 133.209 12.683 133.209 10.7156C133.209 8.74808 131.444 7.16709 129.069 7.16709Z" fill="#0039A6"/>
<path d="M157.801 3.32031V6.95828H144.713V10.8945H151.988C156.097 10.8945 159.809 13.6973 159.809 17.5142C159.809 21.54 156.278 24.1935 151.988 24.1935H140.453V3.32031H157.801ZM151.988 14.5909H144.713V20.5244H151.988C154.087 20.5244 155.549 19.2418 155.549 17.5129C155.549 15.9021 154.058 14.5909 151.988 14.5909Z" fill="#0039A6"/>
<path d="M14.7914 3.32031V6.95828H4.26149V24.1922H0V3.32031H14.7914Z" fill="white"/>
<path d="M30.2844 24.1921L29.8581 22.2246C28.3052 23.7459 26.0838 24.6395 23.497 24.6395C18.4451 24.6395 14.6404 21.27 14.6404 16.7683C14.6404 12.2666 18.4147 8.8374 23.497 8.8374C26.0533 8.8374 28.3065 9.70247 29.8581 11.2523L30.2844 9.28485H34.0587V24.1934H30.2844V24.1921ZM24.4104 20.9419C27.6367 20.9419 29.7972 19.2429 29.7972 16.767C29.7972 14.2911 27.6062 12.5026 24.4104 12.5026C21.2146 12.5026 18.9019 14.2911 18.9019 16.767C18.9019 19.2429 21.2146 20.9419 24.4104 20.9419Z" fill="white"/>
<path d="M37.6492 19.0044H41.6062C41.6062 20.6152 43.3709 21.6281 45.6241 21.6281C47.7541 21.6281 49.1243 20.8824 49.1243 19.7203C49.1243 18.4973 47.7846 17.7528 45.2891 17.7528H43.8276V15.3677H45.2282C47.6628 15.3677 48.6981 14.7114 48.6981 13.5195C48.6981 12.4158 47.4192 11.731 45.4414 11.731C43.4635 11.731 42.0324 12.7453 42.0324 14.1161H38.0754C38.0754 11.1643 41.2408 8.86865 45.2891 8.86865C49.8551 8.86865 52.8986 10.5677 52.8986 13.1032C52.8986 14.6544 52.0156 15.7866 50.2509 16.4727C52.2897 17.1886 53.3249 18.4402 53.3249 20.1405C53.3249 22.8537 50.1596 24.6435 45.4427 24.6435C41.0899 24.6435 37.6505 22.2584 37.6505 19.0083L37.6492 19.0044Z" fill="white"/>
<path d="M59.7455 17.7812C60.2022 19.9277 62.1496 21.3595 64.706 21.3595C66.5316 21.3595 67.9931 20.7033 68.7848 19.6307H73.1071C71.9501 22.672 68.6934 24.6395 64.5246 24.6395C59.2901 24.6395 55.3635 21.27 55.3635 16.7683C55.3635 12.2666 59.2596 8.8374 64.5246 8.8374C69.7896 8.8374 73.6248 12.0279 73.6248 16.7683C73.6248 17.0964 73.6248 17.4544 73.5639 17.7825H59.7455V17.7812ZM69.2415 15.6944C68.8152 13.5778 67.0201 12.2056 64.5233 12.2056C62.0265 12.2056 60.2009 13.6076 59.7442 15.6944H69.2402H69.2415Z" fill="white"/>
<path d="M81.9334 13.1305H75.0242V9.28369H93.0114V13.1305H86.1935V24.1922H81.932V13.1305H81.9334Z" fill="white"/>
<path d="M109.873 24.1921L109.447 22.2246C107.894 23.7459 105.673 24.6395 103.086 24.6395C98.034 24.6395 94.2292 21.27 94.2292 16.7683C94.2292 12.2666 98.0036 8.8374 103.086 8.8374C105.642 8.8374 107.894 9.70247 109.447 11.2523L109.873 9.28485H113.648V24.1934H109.873V24.1921ZM103.999 20.9419C107.226 20.9419 109.386 19.2429 109.386 16.767C109.386 14.2911 107.195 12.5026 103.999 12.5026C100.804 12.5026 98.4907 14.2911 98.4907 16.767C98.4907 19.2429 100.804 20.9419 103.999 20.9419Z" fill="white"/>
</svg>
