<svg width="20" height="21" viewBox="0 0 20 21" fill="none" xmlns="http://www.w3.org/2000/svg">
<path d="M16.0753 8.46042C16.0953 6.05042 14.0428 3.84125 11.5003 3.53542C11.4453 3.52856 11.3906 3.52023 11.3361 3.51042C11.2083 3.48595 11.0787 3.47201 10.9486 3.46875C10.4269 3.46875 10.2878 3.83542 10.2511 4.05292C10.2153 4.26542 10.2494 4.44458 10.3519 4.58375C10.5244 4.81792 10.8286 4.85958 11.0728 4.89292C11.1436 4.90292 11.2111 4.91208 11.2678 4.92458C13.5528 5.43542 14.3219 6.23792 14.6978 8.50375C14.7069 8.55875 14.7111 8.62708 14.7161 8.69958C14.7328 8.97042 14.7661 9.53375 15.3719 9.53375C15.4219 9.53375 15.4769 9.52958 15.5336 9.52125C16.0969 9.43542 16.0794 8.92042 16.0711 8.67292C16.0686 8.60292 16.0661 8.53708 16.0728 8.49292C16.0741 8.48186 16.0746 8.47072 16.0744 8.45958L16.0753 8.46042Z" fill="#7C7C7C"/>
<path d="M10.8002 2.65142C10.8685 2.65642 10.9318 2.66142 10.9852 2.66892C14.7377 3.24642 16.4635 5.02392 16.941 8.80559C16.9493 8.86975 16.951 8.94809 16.9518 9.03059C16.9568 9.32642 16.9668 9.94142 17.6268 9.95392H17.6468C17.8543 9.95392 18.0185 9.89142 18.1368 9.76809C18.3418 9.55392 18.3285 9.23475 18.316 8.97809C18.3135 8.91475 18.311 8.85559 18.311 8.80309C18.3593 4.93642 15.011 1.42892 11.1477 1.29892C11.131 1.29892 11.116 1.29892 11.101 1.30142C11.0858 1.30334 11.0705 1.30417 11.0552 1.30392C11.016 1.30392 10.9693 1.30059 10.9185 1.29725C10.8585 1.29309 10.7893 1.28809 10.7185 1.28809C10.1035 1.28809 9.98684 1.72559 9.97184 1.98642C9.93767 2.58892 10.5202 2.63142 10.8002 2.65142ZM16.7602 13.6931C16.6797 13.6319 16.5999 13.5697 16.521 13.5064C16.111 13.1764 15.6752 12.8731 15.2543 12.5789L14.9918 12.3956C14.4518 12.0164 13.9668 11.8323 13.5085 11.8323C12.8902 11.8323 12.3518 12.1739 11.9068 12.8464C11.7102 13.1448 11.471 13.2898 11.1768 13.2898C10.9725 13.2826 10.772 13.2323 10.5885 13.1423C8.84684 12.3523 7.60184 11.1406 6.89017 9.54142C6.546 8.76809 6.65767 8.26309 7.26267 7.85142C7.60684 7.61809 8.246 7.18392 8.20184 6.35142C8.15017 5.40725 6.066 2.56475 5.18767 2.24225C4.81219 2.10529 4.4006 2.10411 4.02434 2.23892C3.01517 2.57809 2.29184 3.17475 1.92934 3.96225C1.57934 4.72392 1.596 5.61809 1.97434 6.54809C3.07017 9.23725 4.61017 11.5823 6.55267 13.5173C8.4535 15.4114 10.7902 16.9623 13.4968 18.1281C13.741 18.2331 13.9968 18.2906 14.1843 18.3323C14.2477 18.3464 14.3027 18.3589 14.3427 18.3698C14.3647 18.3757 14.3874 18.3788 14.4102 18.3789H14.4318C15.7052 18.3789 17.2343 17.2156 17.7035 15.8898C18.1152 14.7281 17.3635 14.1539 16.7602 13.6931ZM11.3635 5.72392C11.146 5.72892 10.6918 5.74059 10.5327 6.20225C10.4577 6.41892 10.4668 6.60559 10.5593 6.75975C10.6943 6.98475 10.9535 7.05475 11.1885 7.09309C12.0427 7.22975 12.4818 7.70142 12.5693 8.57892C12.6102 8.98725 12.886 9.27309 13.2385 9.27309C13.2652 9.27305 13.292 9.27138 13.3185 9.26809C13.7435 9.21809 13.9493 8.90559 13.931 8.33975C13.9377 7.74975 13.6293 7.07975 13.1035 6.54642C12.5768 6.01142 11.9418 5.70975 11.3635 5.72392Z" fill="#7C7C7C"/>
</svg>
