<svg width="20" height="21" viewBox="0 0 20 21" fill="none" xmlns="http://www.w3.org/2000/svg">
<g clip-path="url(#clip0_5_7150)">
<path d="M18.5043 4.83648C15.5125 0.40415 9.40435 -0.913568 4.6674 1.84166C0.0551144 4.59689 -1.44076 10.5865 1.55099 15.0188L1.80031 15.3782L0.803054 18.972L4.54275 18.0137L4.91672 18.2532C6.53725 19.0918 8.28244 19.571 10.0276 19.571C11.8975 19.571 13.7673 19.0918 15.3879 18.1335C20.0002 15.2584 21.3714 9.38859 18.5043 4.83648ZM15.8865 14.0605C15.3879 14.7793 14.7646 15.2584 13.892 15.3782C13.3934 15.3782 12.7701 15.6178 10.2769 14.6595C8.15779 13.7011 6.4126 12.1438 5.16603 10.3469C4.41809 9.50839 4.04412 8.43025 3.91947 7.35212C3.91947 6.39378 4.29344 5.55523 4.91672 4.95627C5.16603 4.71668 5.41534 4.59689 5.66466 4.59689H6.28794C6.53725 4.59689 6.78656 4.59689 6.91122 5.07606C7.16053 5.67502 7.78382 7.11253 7.78382 7.23233C7.90847 7.35212 7.90847 7.59171 7.78382 7.7115C7.90847 7.95108 7.78382 8.19067 7.65916 8.31046C7.5345 8.43025 7.40985 8.66984 7.28519 8.78963C7.03588 8.90942 6.91122 9.14901 7.03588 9.38859C7.5345 10.1073 8.15779 10.8261 8.78107 11.4251C9.52901 12.024 10.2769 12.5032 11.1495 12.8626C11.3989 12.9824 11.6482 12.9824 11.7728 12.7428C11.8975 12.5032 12.5208 11.9042 12.7701 11.6647C13.0194 11.4251 13.144 11.4251 13.3934 11.5449L15.3879 12.5032C15.6372 12.623 15.8865 12.7428 16.0111 12.8626C16.1358 13.222 16.1358 13.7011 15.8865 14.0605Z" fill="#7C7C7C"/>
</g>
<defs>
<clipPath id="clip0_5_7150">
<rect width="20" height="20" fill="white" transform="translate(0 0.0380859)"/>
</clipPath>
</defs>
</svg>
