<svg width="16" height="17" viewBox="0 0 16 17" fill="none" xmlns="http://www.w3.org/2000/svg">
<path d="M3 15.0381H13V12.5381C12.9989 11.6102 12.6299 10.7205 11.9737 10.0644C11.3176 9.40823 10.4279 9.03914 9.5 9.03809H6.5C5.57207 9.03914 4.68244 9.40823 4.0263 10.0644C3.37015 10.7205 3.00106 11.6102 3 12.5381V15.0381ZM4.5 4.53809C4.5 5.23032 4.70527 5.90701 5.08986 6.48258C5.47444 7.05815 6.02107 7.50676 6.66061 7.77166C7.30015 8.03657 8.00388 8.10588 8.68282 7.97083C9.36175 7.83579 9.98539 7.50244 10.4749 7.01296C10.9644 6.52348 11.2977 5.89984 11.4327 5.2209C11.5678 4.54197 11.4985 3.83824 11.2336 3.19869C10.9687 2.55915 10.5201 2.01253 9.9445 1.62794C9.36892 1.24336 8.69223 1.03809 8 1.03809C7.07174 1.03809 6.1815 1.40683 5.52513 2.06321C4.86875 2.71959 4.5 3.60983 4.5 4.53809Z" fill="#7C7C7C"/>
</svg>
