<?xml version="1.0" encoding="utf-8"?><svg viewBox="0 0 24 24" xmlns="http://www.w3.org/2000/svg" xmlns:xlink="http://www.w3.org/1999/xlink"><style>:root>svg{display:none}:root>svg:target{display:block}</style><svg viewBox="0 0 24 24" id="telegram" xmlns="http://www.w3.org/2000/svg"><path fill-rule="evenodd" clip-rule="evenodd" d="M24 12c0 6.627-5.373 12-12 12S0 18.627 0 12 5.373 0 12 0s12 5.373 12 12zM12.43 8.859c-1.167.485-3.5 1.49-6.998 3.014-.568.226-.866.447-.893.663-.046.366.412.51 1.034.705.085.027.173.054.263.084.613.199 1.437.432 1.865.441.389.008.823-.152 1.302-.48 3.268-2.207 4.955-3.322 5.061-3.346.075-.017.179-.039.249.024.07.062.063.18.056.212-.046.193-1.84 1.862-2.77 2.726-.29.269-.495.46-.537.504-.094.097-.19.19-.282.279-.57.548-.996.96.024 1.632.49.323.882.59 1.273.856.427.291.853.581 1.405.943.14.092.274.187.405.28.497.355.944.673 1.496.623.32-.03.652-.331.82-1.23.397-2.126 1.179-6.73 1.36-8.628a2.112 2.112 0 00-.02-.472.506.506 0 00-.172-.325c-.143-.117-.365-.142-.465-.14-.451.008-1.143.249-4.476 1.635z"/></svg><svg viewBox="0 0 24 14" id="vk" xmlns="http://www.w3.org/2000/svg"><path fill-rule="evenodd" clip-rule="evenodd" d="M23.45.948c.166-.546 0-.948-.795-.948H20.03c-.668 0-.976.347-1.143.73 0 0-1.335 3.196-3.226 5.272-.612.602-.89.793-1.224.793-.167 0-.418-.191-.418-.738V.948c0-.656-.184-.948-.74-.948H9.151c-.417 0-.668.304-.668.593 0 .621.946.765 1.043 2.513v3.798c0 .833-.153.984-.487.984-.89 0-3.055-3.211-4.34-6.885C4.45.288 4.198 0 3.527 0H.9C.15 0 0 .347 0 .73c0 .682.89 4.07 4.145 8.551C6.315 12.341 9.37 14 12.153 14c1.669 0 1.875-.368 1.875-1.003v-2.313c0-.737.158-.884.687-.884.39 0 1.057.192 2.615 1.667C19.11 13.216 19.403 14 20.405 14h2.625c.75 0 1.126-.368.91-1.096-.238-.724-1.088-1.775-2.215-3.022-.612-.71-1.53-1.475-1.809-1.858-.389-.491-.278-.71 0-1.147 0 0 3.2-4.426 3.533-5.929h.001z"/></svg><svg viewBox="0 0 23 22" id="weather" xmlns="http://www.w3.org/2000/svg"><path d="M12.638 6.425c2.904 0 4.552 1.922 4.792 4.244h.073a3.38 3.38 0 013.384 3.376 3.38 3.38 0 01-3.384 3.376h-9.73a3.38 3.38 0 01-3.385-3.376 3.38 3.38 0 013.273-3.374l.185-.002c.241-2.337 1.887-4.244 4.792-4.244zm0 1.144c-1.953 0-3.655 1.58-3.655 3.763 0 .346-.301.617-.645.617h-.652c-1.189 0-2.153.969-2.153 2.164 0 1.195.964 2.164 2.153 2.164h9.903c1.19 0 2.152-.969 2.152-2.164a2.158 2.158 0 00-2.152-2.164h-.651c-.345 0-.645-.271-.645-.617 0-2.21-1.703-3.763-3.656-3.763zM9.886 3.667a4.322 4.322 0 013.57 1.881 7.002 7.002 0 00-1.576-.008 3.048 3.048 0 00-1.994-.745c-1.505 0-2.788 1.11-3.044 2.611l-.144.839a.458.458 0 01-.452.381h-.892c-.946 0-1.712.784-1.712 1.752 0 .506.21.963.546 1.283-.199.298-.36.62-.478.959a3.009 3.009 0 011.852-5.38h.065a4.327 4.327 0 014.26-3.573z"/></svg><svg viewBox="0 0 22 16" id="youtube" xmlns="http://www.w3.org/2000/svg"><path d="M21.062 2.94a2.631 2.631 0 00-1.857-1.859C17.568.641 11 .641 11 .641s-6.567 0-8.205.438A2.628 2.628 0 00.938 2.938C.5 4.577.5 8 .5 8s0 3.422.438 5.06a2.632 2.632 0 001.857 1.859c1.638.44 8.205.44 8.205.44s6.567 0 8.206-.44a2.628 2.628 0 001.856-1.859C21.5 11.422 21.5 8 21.5 8s0-3.422-.438-5.06zm-12.148 8.2V4.86l5.438 3.117-5.438 3.164z"/></svg></svg>